<svg xmlns="http://www.w3.org/2000/svg" width="600" height="600" viewBox="0 0 600 600" fill="none"><metadata><rdf:RDF xmlns:rdf="http://www.w3.org/1999/02/22-rdf-syntax-ns#" xmlns:dc="http://purl.org/dc/elements/1.1/"><rdf:Description><dc:creator>RealFaviconGenerator</dc:creator><dc:source>https://realfavicongenerator.net</dc:source></rdf:Description></rdf:RDF></metadata><rect width="600" height="600" fill="#093149"></rect><path d="M264 375V521H334V375H264Z" fill="white"></path><path d="M227.933 343.197C235.73 352.858 247.663 360.027 264 363H334C345.139 361.514 353.616 358.246 359.928 353.787C366.612 348.956 372.181 342.082 376.637 333.164C381.463 324.246 386.661 312.727 392.231 298.607L478 79H407.825L324.841 296.377C323.356 301.208 320.385 303.623 315.93 303.623H286.412C281.956 303.623 278.986 301.208 277.501 296.377L195.073 79H121L204.541 298.049C212.339 318.115 220.136 333.164 227.933 343.197Z" fill="#FFE50A"></path></svg>