<svg width="600" height="600" viewBox="0 0 600 600" fill="none" xmlns="http://www.w3.org/2000/svg">
  <rect width="600" height="600" fill="#093149"/>
  <path d="M264.134 521V362.148C247.797 359.175 235.73 352.858 227.933 343.197C220.136 333.164 212.339 318.115 204.541 298.049L121 79H195.073L277.501 296.377C278.986 301.208 281.956 303.623 286.412 303.623H315.93C320.385 303.623 323.356 301.208 324.841 296.377L407.825 79H478L392.231 298.607C386.661 312.727 381.463 324.246 376.637 333.164C372.181 342.082 366.612 348.956 359.928 353.787C353.616 358.246 344.891 361.219 333.752 362.705V521H264.134Z" fill="#FFE50A"/>
  </svg>
  